name rise35.5848peak51.9257fall54.8793.mot
datacolumns 19
datarows 21
range 12.499944 12.533284
endheader
time	ground_force1_vx	ground_force1_vy	ground_force1_vz	ground_force1_px	ground_force1_py	ground_force1_pz	ground_force2_vx	ground_force2_vy	ground_force2_vz	ground_force2_px	ground_force2_py	ground_force2_pz	ground_torque1_x	ground_torque1_y	ground_torque1_z	ground_torque2_x	ground_torque2_y	ground_torque2_z	
12.499944	-60.877536	698.230324	43.450038	0.084681	0.000000	0.121059	15.448110	243.147038	5.744984	0.375175	0.000000	-0.078984	0.000000	20.751066	0.000000	0.000000	7.626472	0.000000	
12.501619	-61.812373	692.548908	42.612733	0.083974	0.000000	0.120839	16.528583	249.811372	5.200007	0.375106	0.000000	-0.079179	0.000000	20.785682	0.000000	0.000000	7.413391	0.000000	
12.503281	-62.738046	686.696512	41.754876	0.083253	0.000000	0.120617	17.629778	256.456833	4.623024	0.374989	0.000000	-0.079375	0.000000	20.817598	0.000000	0.000000	7.180514	0.000000	
12.504951	-63.652220	680.673242	40.877441	0.082515	0.000000	0.120392	18.749619	263.083318	4.015317	0.374824	0.000000	-0.079573	0.000000	20.846439	0.000000	0.000000	6.928649	0.000000	
12.506613	-64.552495	674.479404	39.981451	0.081761	0.000000	0.120165	19.886021	269.690605	3.378162	0.374613	0.000000	-0.079773	0.000000	20.871819	0.000000	0.000000	6.658594	0.000000	
12.508277	-65.436409	668.115507	39.067976	0.080989	0.000000	0.119935	21.036902	276.278192	2.712799	0.374356	0.000000	-0.079974	0.000000	20.893344	0.000000	0.000000	6.371122	0.000000	
12.509951	-66.301444	661.582279	38.138131	0.080200	0.000000	0.119702	22.200196	282.845211	2.020421	0.374054	0.000000	-0.080176	0.000000	20.910611	0.000000	0.000000	6.066963	0.000000	
12.511614	-67.145037	654.880674	37.193072	0.079392	0.000000	0.119468	23.373860	289.390411	1.302171	0.373710	0.000000	-0.080380	0.000000	20.923211	0.000000	0.000000	5.746810	0.000000	
12.513279	-67.964582	648.011874	36.233993	0.078565	0.000000	0.119231	24.555872	295.912185	0.559140	0.373322	0.000000	-0.080585	0.000000	20.930728	0.000000	0.000000	5.411315	0.000000	
12.514949	-68.757444	640.977303	35.262126	0.077718	0.000000	0.118992	25.744234	302.408650	-0.207615	0.372894	0.000000	-0.080790	0.000000	20.932744	0.000000	0.000000	5.061103	0.000000	
12.516611	-69.520960	633.778627	34.278732	0.076853	0.000000	0.118752	26.936972	308.877747	-0.997059	0.372425	0.000000	-0.080996	0.000000	20.928837	0.000000	0.000000	4.696781	0.000000	
12.518286	-70.252455	626.417759	33.285106	0.075966	0.000000	0.118510	28.132127	315.317349	-1.808166	0.371916	0.000000	-0.081203	0.000000	20.918580	0.000000	0.000000	4.318948	0.000000	
12.519946	-70.949247	618.896858	32.282566	0.075060	0.000000	0.118266	29.327759	321.725381	-2.639901	0.371369	0.000000	-0.081410	0.000000	20.901551	0.000000	0.000000	3.928211	0.000000	
12.521618	-71.608658	611.218330	31.272454	0.074132	0.000000	0.118021	30.521945	328.099929	-3.491205	0.370784	0.000000	-0.081617	0.000000	20.877325	0.000000	0.000000	3.525192	0.000000	
12.523284	-72.228023	603.384827	30.256132	0.073184	0.000000	0.117774	31.712777	334.439327	-4.360989	0.370163	0.000000	-0.081823	0.000000	20.845483	0.000000	0.000000	3.110536	0.000000	
12.524945	-72.804703	595.399239	29.234982	0.072215	0.000000	0.117526	32.898364	340.742233	-5.248124	0.369507	0.000000	-0.082030	0.000000	20.805608	0.000000	0.000000	2.684917	0.000000	
12.526612	-73.336097	587.264694	28.210396	0.071224	0.000000	0.117278	34.076841	347.007678	-6.151439	0.368816	0.000000	-0.082235	0.000000	20.757293	0.000000	0.000000	2.249042	0.000000	
12.528280	-73.819650	578.984547	27.183781	0.070211	0.000000	0.117028	35.246368	353.235094	-7.069724	0.368093	0.000000	-0.082440	0.000000	20.700138	0.000000	0.000000	1.803647	0.000000	
12.529947	-74.252869	570.562385	26.156549	0.069178	0.000000	0.116778	36.405138	359.424320	-8.001730	0.367338	0.000000	-0.082644	0.000000	20.633756	0.000000	0.000000	1.349494	0.000000	
12.531619	-74.633334	562.002014	25.130118	0.068122	0.000000	0.116527	37.551387	365.575593	-8.946178	0.366552	0.000000	-0.082847	0.000000	20.557773	0.000000	0.000000	0.887371	0.000000	
12.533284	-74.958710	553.307467	24.105908	0.067046	0.000000	0.116276	38.683397	371.689520	-9.901769	0.365738	0.000000	-0.083049	0.000000	20.471829	0.000000	0.000000	0.418082	0.000000	
